<svg width="20" height="20" viewBox="0 0 20 20" fill="none" xmlns="http://www.w3.org/2000/svg">
<g clip-path="url(#clip0_514_2065)">
<path d="M11.7513 7.58887L11.2294 8.11068C10.6 7.78312 9.83122 7.90328 9.30511 8.42943C8.95806 8.77647 8.80874 9.1478 8.83549 9.60142C8.8648 9.99441 8.92949 10.2629 9.11105 10.747C9.37343 11.4865 9.38045 11.8176 9.13889 12.0592C8.98539 12.2127 8.818 12.2997 8.64127 12.318C8.42012 12.335 8.22868 12.2545 8.03904 12.0649C7.68005 11.7059 7.69168 11.2942 8.08061 10.5964L8.21822 10.3495L7.09636 10.0736L7.01262 10.2008C6.54834 10.9063 6.51664 11.7419 6.91705 12.4232L6.40039 12.9399L7.16409 13.7036L7.68504 13.1826C7.98911 13.364 8.32546 13.4473 8.68652 13.4306C9.17043 13.4113 9.59891 13.2184 9.96001 12.8573L9.96637 12.8506C10.3732 12.4074 10.5113 11.9755 10.4283 11.408C10.3791 11.0517 10.3217 10.8705 10.208 10.5295L10.0597 10.0614C10.0355 9.97891 10.0148 9.86707 9.98866 9.72575L9.98628 9.71295C9.95478 9.45573 10.0244 9.32944 10.155 9.19886C10.3491 9.00469 10.6548 8.99442 10.8362 9.17591C11.0346 9.37422 11.1174 9.56933 10.9875 10.0316L10.9254 10.2528L12.0108 10.4848L12.071 10.3002C12.2424 9.77455 12.2147 9.2972 11.9891 8.87848L12.515 8.35252L11.7513 7.58887Z" fill="#0061DF"/>
<path d="M20 0.838301L19.1742 0.0078125L16.916 2.25326L9.59496 1.40361L0 10.986L8.99492 19.9927L18.5898 10.4102L17.7485 3.07708L20 0.838301ZM17.3618 9.98152L8.99597 18.3365L1.65625 10.9871L10.0221 2.63216L15.8543 3.30904L14.6815 4.47521C14.4724 4.38226 14.2444 4.33292 14.0086 4.33292C13.5664 4.33292 13.1506 4.505 12.8377 4.81749C12.1912 5.46314 12.1905 6.51442 12.8361 7.16093C13.1492 7.4744 13.5656 7.64703 14.0086 7.64703C14.4509 7.64703 14.8667 7.47495 15.1796 7.16245C15.6832 6.65953 15.7948 5.91059 15.5145 5.29848L16.6904 4.12922L17.3618 9.98152ZM14.352 6.3338C14.2603 6.42542 14.1383 6.47589 14.0086 6.47589C13.8787 6.47589 13.7566 6.42526 13.6648 6.33337C13.4755 6.1438 13.4757 5.83548 13.6652 5.64615C13.757 5.55449 13.879 5.50405 14.0086 5.50405C14.1386 5.50405 14.2607 5.55468 14.3525 5.64658C14.5418 5.83614 14.5416 6.14446 14.352 6.3338V6.3338Z" fill="#0061DF"/>
</g>
<defs>
<clipPath id="clip0_514_2065">
<rect width="20" height="20" fill="white"/>
</clipPath>
</defs>
</svg>
